<svg id="Capa_3" data-name="Capa 3" xmlns="http://www.w3.org/2000/svg" viewBox="0 0 800 800"><defs><style>.cls-1{fill:#1d1d1b;}</style></defs><g id="Capa_5" data-name="Capa 5"><g id="Capa_7" data-name="Capa 7"><path class="cls-1" d="M400,0C179.09,0,0,179.09,0,400S179.09,800,400,800,800,620.91,800,400,620.91,0,400,0ZM248,176.55s83.16,46.56,83.27,82-82.75,83-82.75,83,21.65-35.25,21.51-82.83S248,176.55,248,176.55Zm152.72,468.9S248.5,558.67,248.5,493.7,400.72,342.87,400.72,342.87s-39.91,63.58-39.91,150.83S400.72,645.45,400.72,645.45Zm128.22,0s-5.75-46.74-40.29-89.2-79.5-58.06-79.5-58.06,108.44-18,134.16,13.59S528.94,645.45,528.94,645.45Zm24.69-303.88s-82.87-47.59-82.76-83,83.27-82,83.27-82-21.87,34.61-22,82.19S553.63,341.57,553.63,341.57ZM400.72,275.65C386.47,198,245.47,154.77,245.47,154.77H556S415.23,198,400.72,275.65Z"/></g></g></svg>